<?xml version="1.0" encoding="UTF-8" standalone="no"?>
<svg width="50px" height="50px" viewBox="0 0 50 50" version="1.1" xmlns="http://www.w3.org/2000/svg" xmlns:xlink="http://www.w3.org/1999/xlink" style="background: #FFFFFF;">
    <!-- Generator: Sketch 47.1 (45422) - http://www.bohemiancoding.com/sketch -->
    <title>Background</title>
    <desc>Created with Sketch.</desc>
    <defs></defs>
    <g id="Symbols" stroke="none" stroke-width="1" fill="none" fill-rule="evenodd">
        <g id="Background" fill="#979797">
            <circle id="Oval" cx="45.5" cy="45.5" r="1"></circle>
            <circle id="Oval" cx="35.5" cy="45.5" r="1"></circle>
            <circle id="Oval" cx="25.5" cy="45.5" r="1"></circle>
            <circle id="Oval" cx="15.5" cy="45.5" r="1"></circle>
            <circle id="Oval" cx="5.5" cy="45.5" r="1"></circle>
            <circle id="Oval" cx="5.5" cy="45.5" r="1"></circle>
            <circle id="Oval" cx="45.5" cy="35.5" r="1"></circle>
            <circle id="Oval" cx="35.5" cy="35.5" r="1"></circle>
            <circle id="Oval" cx="25.5" cy="35.5" r="1"></circle>
            <circle id="Oval" cx="15.5" cy="35.5" r="1"></circle>
            <circle id="Oval" cx="5.5" cy="35.5" r="1"></circle>
            <circle id="Oval" cx="45.5" cy="25.5" r="1"></circle>
            <circle id="Oval" cx="35.5" cy="25.5" r="1"></circle>
            <circle id="Oval" cx="25.5" cy="25.5" r="1"></circle>
            <circle id="Oval" cx="15.5" cy="25.5" r="1"></circle>
            <circle id="Oval" cx="5.5" cy="25.5" r="1"></circle>
            <circle id="Oval" cx="45.5" cy="15.5" r="1"></circle>
            <circle id="Oval" cx="35.5" cy="15.5" r="1"></circle>
            <circle id="Oval" cx="25.5" cy="15.5" r="1"></circle>
            <circle id="Oval" cx="15.5" cy="15.5" r="1"></circle>
            <circle id="Oval" cx="5.5" cy="15.5" r="1"></circle>
            <circle id="Oval" cx="45.5" cy="5.5" r="1"></circle>
            <circle id="Oval" cx="35.5" cy="5.5" r="1"></circle>
            <circle id="Oval" cx="25.5" cy="5.5" r="1"></circle>
            <circle id="Oval" cx="15.5" cy="5.5" r="1"></circle>
            <circle id="Oval" cx="5.5" cy="5.5" r="1"></circle>
        </g>
    </g>
</svg>