<?xml version="1.0" encoding="UTF-8" standalone="no"?>
<svg width="389px" height="154px" viewBox="0 0 389 154" version="1.1" xmlns="http://www.w3.org/2000/svg" xmlns:xlink="http://www.w3.org/1999/xlink">
    <!-- Generator: Sketch 47.1 (45422) - http://www.bohemiancoding.com/sketch -->
    <title>PLIX Logo</title>
    <desc>Created with Sketch.</desc>
    <defs></defs>
    <g id="Symbols" stroke="none" stroke-width="1" fill="none" fill-rule="evenodd">
        <g id="PLIX-Logo" fill="#000000">
            <path d="M20.561371,106.882353 L35.7619268,106.882353 C38.004643,106.882353 40.1642632,106.716155 42.2408522,106.383754 C44.3174413,106.051352 46.1448122,105.407334 47.7230199,104.451681 C49.3012276,103.496027 50.5679279,102.145667 51.5231589,100.40056 C52.4783898,98.6554535 52.9559981,96.3702289 52.9559981,93.5448179 C52.9559981,90.719407 52.4783898,88.4341824 51.5231589,86.6890756 C50.5679279,84.9439689 49.3012276,83.5936089 47.7230199,82.6379552 C46.1448122,81.6823015 44.3174413,81.0382836 42.2408522,80.7058824 C40.1642632,80.3734811 38.004643,80.2072829 35.7619268,80.2072829 L20.561371,80.2072829 L20.561371,106.882353 Z M1,65 L41.1194998,65 C46.6847584,65 51.4193104,65.810216 55.3232978,67.4306723 C59.2272852,69.0511286 62.4044188,71.1909297 64.8547939,73.8501401 C67.305169,76.5093504 69.0910088,79.5424666 70.2123668,82.9495798 C71.3337249,86.356693 71.8943956,89.8884038 71.8943956,93.5448179 C71.8943956,97.1181318 71.3337249,100.629068 70.2123668,104.077731 C69.0910088,107.526394 67.305169,110.580285 64.8547939,113.239496 C62.4044188,115.898706 59.2272852,118.038507 55.3232978,119.658964 C51.4193104,121.27942 46.6847584,122.089636 41.1194998,122.089636 L20.561371,122.089636 L20.561371,154 L1,154 L1,65 Z M84.1046781,65 L84.1046781,154 L147.025012,154 L147.025012,137.546218 L103.666049,137.546218 L103.666049,65 L84.1046781,65 Z M157.989347,65 L157.989347,154 L177.550718,154 L177.550718,65 L157.989347,65 Z M216.548865,107.380952 L185.52478,154 L207.453451,154 L227.264011,123.211485 L246.700787,154 L270,154 L238.975915,107.505602 L267.508106,65 L246.077814,65 L228.011579,93.4201681 L210.568319,65 L187.89208,65 L216.548865,107.380952 Z" id="PLIX"></path>
            <polygon id="Path-3" points="296 38 309.32489 38 309.32489 75.8009472 349 75.8009472 349 88 296 88"></polygon>
            <polygon id="Path-2" points="296 0 348.435617 0 348.435617 37.9476658 388 37.9476658 388 89 374.822501 89 374.822501 51.0344033 335.62 51.0344033 335.62 12.7912352 296 12.7912352"></polygon>
        </g>
    </g>
</svg>